<mxfile host="app.diagrams.net" modified="2021-12-18T06:31:52.709Z" agent="5.0 (Windows NT 10.0; Win64; x64) AppleWebKit/537.36 (KHTML, like Gecko) Chrome/96.0.4664.110 Safari/537.36" etag="eP5YExY4eX5YzKkL2N5M" version="16.0.0" type="github">
  <diagram id="ZgDnklnv8hs0AD4zhIGA" name="Page-1">
    <mxGraphModel dx="1093" dy="609" grid="1" gridSize="10" guides="1" tooltips="1" connect="1" arrows="1" fold="1" page="0" pageScale="1" pageWidth="1100" pageHeight="850" background="none" math="0" shadow="0">
      <root>
        <mxCell id="0" />
        <mxCell id="1" parent="0" />
        <mxCell id="tGK0brASN7LOrKUB66ZN-87" style="edgeStyle=orthogonalEdgeStyle;rounded=0;orthogonalLoop=1;jettySize=auto;html=1;exitX=0.25;exitY=1;exitDx=0;exitDy=0;entryX=1;entryY=0.5;entryDx=0;entryDy=0;fontFamily=Work Sans;fontSource=https%3A%2F%2Ffonts.googleapis.com%2Fcss%3Ffamily%3DWork%2BSans;fontSize=14;fontColor=#0F0900;startArrow=none;startFill=0;endArrow=classic;endFill=1;" parent="1" source="tGK0brASN7LOrKUB66ZN-61" target="tGK0brASN7LOrKUB66ZN-86" edge="1">
          <mxGeometry relative="1" as="geometry" />
        </mxCell>
        <mxCell id="tGK0brASN7LOrKUB66ZN-61" value="wunderDB" style="rounded=0;whiteSpace=wrap;html=1;fontFamily=Work Sans;fontSource=https%3A%2F%2Ffonts.googleapis.com%2Fcss%3Ffamily%3DWork%2BSans;fontSize=20;align=center;verticalAlign=middle;fillColor=#fff2cc;strokeColor=#d6b656;" parent="1" vertex="1">
          <mxGeometry x="700" y="582" width="190" height="50" as="geometry" />
        </mxCell>
        <mxCell id="tGK0brASN7LOrKUB66ZN-76" value="Token" style="text;html=1;strokeColor=none;fillColor=none;align=center;verticalAlign=middle;whiteSpace=wrap;rounded=0;fontFamily=Work Sans;fontSource=https%3A%2F%2Ffonts.googleapis.com%2Fcss%3Ffamily%3DWork%2BSans;fontSize=14;fontColor=#0F0900;rotation=90;direction=east;horizontal=0;fontStyle=0" parent="1" vertex="1">
          <mxGeometry x="710" y="444" width="30" height="80" as="geometry" />
        </mxCell>
        <mxCell id="tGK0brASN7LOrKUB66ZN-78" value="" style="group" parent="1" vertex="1" connectable="0">
          <mxGeometry x="310" y="70" width="630" height="340" as="geometry" />
        </mxCell>
        <mxCell id="tGK0brASN7LOrKUB66ZN-58" value="" style="rounded=0;whiteSpace=wrap;html=1;fontFamily=Work Sans;fontSource=https%3A%2F%2Ffonts.googleapis.com%2Fcss%3Ffamily%3DWork%2BSans;fontSize=18;align=center;verticalAlign=middle;fillColor=#f5f5f5;fontColor=#333333;strokeColor=#666666;" parent="tGK0brASN7LOrKUB66ZN-78" vertex="1">
          <mxGeometry width="630" height="340" as="geometry" />
        </mxCell>
        <mxCell id="tGK0brASN7LOrKUB66ZN-28" value="" style="group" parent="tGK0brASN7LOrKUB66ZN-78" vertex="1" connectable="0">
          <mxGeometry x="70" y="56" width="505" height="100" as="geometry" />
        </mxCell>
        <mxCell id="tGK0brASN7LOrKUB66ZN-2" value="Profiles" style="shape=cube;whiteSpace=wrap;html=1;boundedLbl=1;backgroundOutline=1;darkOpacity=0.05;darkOpacity2=0.1;fontFamily=Work Sans;fontSource=https%3A%2F%2Ffonts.googleapis.com%2Fcss%3Ffamily%3DWork%2BSans;fontSize=18;size=10;fillColor=#f8cecc;strokeColor=#b85450;" parent="tGK0brASN7LOrKUB66ZN-28" vertex="1">
          <mxGeometry y="43.956043956043956" width="500.00000000000006" height="54.94505494505494" as="geometry" />
        </mxCell>
        <mxCell id="tGK0brASN7LOrKUB66ZN-77" value="Tokens" style="shape=cube;whiteSpace=wrap;html=1;boundedLbl=1;backgroundOutline=1;darkOpacity=0.05;darkOpacity2=0.1;fontFamily=Work Sans;fontSource=https%3A%2F%2Ffonts.googleapis.com%2Fcss%3Ffamily%3DWork%2BSans;fontSize=18;size=10;fillColor=#d5e8d4;strokeColor=#82b366;" parent="tGK0brASN7LOrKUB66ZN-28" vertex="1">
          <mxGeometry x="330" width="170" height="54.95" as="geometry" />
        </mxCell>
        <mxCell id="tGK0brASN7LOrKUB66ZN-26" value="Credentials" style="shape=cube;whiteSpace=wrap;html=1;boundedLbl=1;backgroundOutline=1;darkOpacity=0.05;darkOpacity2=0.1;fontFamily=Work Sans;fontSource=https%3A%2F%2Ffonts.googleapis.com%2Fcss%3Ffamily%3DWork%2BSans;fontSize=18;size=10;fillColor=#e1d5e7;strokeColor=#9673a6;" parent="tGK0brASN7LOrKUB66ZN-28" vertex="1">
          <mxGeometry x="83.34" width="256.66" height="54.95" as="geometry" />
        </mxCell>
        <mxCell id="tGK0brASN7LOrKUB66ZN-25" value="uID" style="shape=cube;whiteSpace=wrap;html=1;boundedLbl=1;backgroundOutline=1;darkOpacity=0.05;darkOpacity2=0.1;fontFamily=Work Sans;fontSource=https%3A%2F%2Ffonts.googleapis.com%2Fcss%3Ffamily%3DWork%2BSans;fontSize=18;size=10;fillColor=#dae8fc;strokeColor=#6c8ebf;" parent="tGK0brASN7LOrKUB66ZN-28" vertex="1">
          <mxGeometry width="100" height="54.95" as="geometry" />
        </mxCell>
        <mxCell id="tGK0brASN7LOrKUB66ZN-59" value="wunder &lt;b&gt;Identity Provider&lt;/b&gt;" style="text;html=1;strokeColor=none;fillColor=none;align=center;verticalAlign=middle;whiteSpace=wrap;rounded=0;fontFamily=Work Sans;fontSource=https%3A%2F%2Ffonts.googleapis.com%2Fcss%3Ffamily%3DWork%2BSans;fontSize=20;fontColor=#0F0900;fontStyle=0" parent="tGK0brASN7LOrKUB66ZN-78" vertex="1">
          <mxGeometry x="170" y="13" width="290" height="30" as="geometry" />
        </mxCell>
        <mxCell id="tGK0brASN7LOrKUB66ZN-67" value="" style="group" parent="tGK0brASN7LOrKUB66ZN-78" vertex="1" connectable="0">
          <mxGeometry x="0.19999999999998863" y="175" width="629.6" height="165" as="geometry" />
        </mxCell>
        <mxCell id="tGK0brASN7LOrKUB66ZN-65" value="" style="group" parent="tGK0brASN7LOrKUB66ZN-67" vertex="1" connectable="0">
          <mxGeometry x="219.60000000000002" width="410" height="165" as="geometry" />
        </mxCell>
        <mxCell id="tGK0brASN7LOrKUB66ZN-31" value="" style="rounded=0;whiteSpace=wrap;html=1;fontFamily=Work Sans;fontSource=https%3A%2F%2Ffonts.googleapis.com%2Fcss%3Ffamily%3DWork%2BSans;fontSize=18;align=center;verticalAlign=middle;fillColor=#dae8fc;strokeColor=#6c8ebf;" parent="tGK0brASN7LOrKUB66ZN-65" vertex="1">
          <mxGeometry width="410" height="165" as="geometry" />
        </mxCell>
        <mxCell id="tGK0brASN7LOrKUB66ZN-1" value="&lt;font style=&quot;font-size: 18px&quot;&gt;&lt;b&gt;uID &lt;/b&gt;Generator&lt;/font&gt;" style="rounded=1;whiteSpace=wrap;html=1;fontSize=13;fontFamily=Work Sans;fontSource=https%3A%2F%2Ffonts.googleapis.com%2Fcss%3Ffamily%3DWork%2BSans;fillColor=#fff2cc;strokeColor=#d6b656;arcSize=0;" parent="tGK0brASN7LOrKUB66ZN-65" vertex="1">
          <mxGeometry x="18.680000000000064" y="20" width="210.66" height="41.03" as="geometry" />
        </mxCell>
        <mxCell id="tGK0brASN7LOrKUB66ZN-34" value="&lt;span&gt;Credential Processor&lt;/span&gt;" style="rounded=0;whiteSpace=wrap;html=1;fontFamily=Work Sans;fontSource=https%3A%2F%2Ffonts.googleapis.com%2Fcss%3Ffamily%3DWork%2BSans;fontSize=18;align=center;verticalAlign=middle;fillColor=#fff2cc;strokeColor=#d6b656;fontStyle=0" parent="tGK0brASN7LOrKUB66ZN-65" vertex="1">
          <mxGeometry x="18.680000000000064" y="78.83999999999997" width="210" height="41.03" as="geometry" />
        </mxCell>
        <mxCell id="tGK0brASN7LOrKUB66ZN-36" value="Identity Provider" style="text;html=1;strokeColor=none;fillColor=none;align=center;verticalAlign=middle;whiteSpace=wrap;rounded=0;fontFamily=Work Sans;fontSource=https%3A%2F%2Ffonts.googleapis.com%2Fcss%3Ffamily%3DWork%2BSans;fontSize=18;fontColor=#0F0900;fontStyle=1" parent="tGK0brASN7LOrKUB66ZN-65" vertex="1">
          <mxGeometry x="19.34" y="128.49" width="371.32" height="22.51" as="geometry" />
        </mxCell>
        <mxCell id="tGK0brASN7LOrKUB66ZN-64" value="&lt;span&gt;&lt;b&gt;OTP&lt;br&gt;&lt;/b&gt;Generation &amp;amp; Verification&lt;br&gt;&lt;/span&gt;" style="rounded=0;whiteSpace=wrap;html=1;fontFamily=Work Sans;fontSource=https%3A%2F%2Ffonts.googleapis.com%2Fcss%3Ffamily%3DWork%2BSans;fontSize=18;align=center;verticalAlign=middle;fillColor=#fff2cc;strokeColor=#d6b656;fontStyle=0" parent="tGK0brASN7LOrKUB66ZN-65" vertex="1">
          <mxGeometry x="249" y="20" width="140.66" height="99.87" as="geometry" />
        </mxCell>
        <mxCell id="tGK0brASN7LOrKUB66ZN-66" value="" style="group" parent="tGK0brASN7LOrKUB66ZN-67" vertex="1" connectable="0">
          <mxGeometry width="220" height="165" as="geometry" />
        </mxCell>
        <mxCell id="tGK0brASN7LOrKUB66ZN-47" value="" style="rounded=0;whiteSpace=wrap;html=1;fontFamily=Work Sans;fontSource=https%3A%2F%2Ffonts.googleapis.com%2Fcss%3Ffamily%3DWork%2BSans;fontSize=18;align=center;verticalAlign=middle;fillColor=#d5e8d4;strokeColor=#82b366;" parent="tGK0brASN7LOrKUB66ZN-66" vertex="1">
          <mxGeometry width="220" height="165" as="geometry" />
        </mxCell>
        <mxCell id="tGK0brASN7LOrKUB66ZN-49" value="&lt;span&gt;Credential&amp;nbsp;&lt;br&gt;Verification&lt;br&gt;&lt;/span&gt;" style="rounded=0;whiteSpace=wrap;html=1;fontFamily=Work Sans;fontSource=https%3A%2F%2Ffonts.googleapis.com%2Fcss%3Ffamily%3DWork%2BSans;fontSize=18;align=center;verticalAlign=middle;fillColor=#fff2cc;strokeColor=#d6b656;fontStyle=0" parent="tGK0brASN7LOrKUB66ZN-66" vertex="1">
          <mxGeometry x="20.400000000000034" y="20" width="179.2" height="100" as="geometry" />
        </mxCell>
        <mxCell id="tGK0brASN7LOrKUB66ZN-50" value="ID Authentication" style="text;html=1;strokeColor=none;fillColor=none;align=center;verticalAlign=middle;whiteSpace=wrap;rounded=0;fontFamily=Work Sans;fontSource=https%3A%2F%2Ffonts.googleapis.com%2Fcss%3Ffamily%3DWork%2BSans;fontSize=18;fontColor=#0F0900;fontStyle=1" parent="tGK0brASN7LOrKUB66ZN-66" vertex="1">
          <mxGeometry x="18.88" y="128.49" width="182.24" height="22.51" as="geometry" />
        </mxCell>
        <mxCell id="tGK0brASN7LOrKUB66ZN-79" value="Credentials" style="text;html=1;strokeColor=none;fillColor=none;align=center;verticalAlign=middle;whiteSpace=wrap;rounded=0;fontFamily=Work Sans;fontSource=https%3A%2F%2Ffonts.googleapis.com%2Fcss%3Ffamily%3DWork%2BSans;fontSize=14;fontColor=#0F0900;rotation=-180;direction=west;horizontal=0;fontStyle=0;" parent="1" vertex="1">
          <mxGeometry x="843" y="499" width="30" height="76" as="geometry" />
        </mxCell>
        <mxCell id="tGK0brASN7LOrKUB66ZN-89" style="edgeStyle=orthogonalEdgeStyle;rounded=0;orthogonalLoop=1;jettySize=auto;html=1;exitX=0.5;exitY=0;exitDx=0;exitDy=0;entryX=0;entryY=0.25;entryDx=0;entryDy=0;fontFamily=Work Sans;fontSource=https%3A%2F%2Ffonts.googleapis.com%2Fcss%3Ffamily%3DWork%2BSans;fontSize=14;fontColor=#0F0900;startArrow=none;startFill=0;endArrow=classic;endFill=1;" parent="1" source="tGK0brASN7LOrKUB66ZN-86" target="tGK0brASN7LOrKUB66ZN-61" edge="1">
          <mxGeometry relative="1" as="geometry" />
        </mxCell>
        <mxCell id="tGK0brASN7LOrKUB66ZN-86" value="&lt;font style=&quot;font-size: 18px&quot;&gt;wDB&lt;br&gt;Data&lt;/font&gt;" style="rounded=0;whiteSpace=wrap;html=1;fontFamily=Work Sans;fontSource=https%3A%2F%2Ffonts.googleapis.com%2Fcss%3Ffamily%3DWork%2BSans;fontSize=20;align=center;verticalAlign=middle;fillColor=#f5f5f5;strokeColor=#666666;fontColor=#333333;" parent="1" vertex="1">
          <mxGeometry x="590" y="632" width="90" height="90" as="geometry" />
        </mxCell>
        <mxCell id="tGK0brASN7LOrKUB66ZN-98" style="edgeStyle=orthogonalEdgeStyle;rounded=0;orthogonalLoop=1;jettySize=auto;html=1;exitX=0.5;exitY=1;exitDx=0;exitDy=0;entryX=0;entryY=0;entryDx=0;entryDy=0;fontFamily=Work Sans;fontSource=https%3A%2F%2Ffonts.googleapis.com%2Fcss%3Ffamily%3DWork%2BSans;fontSize=18;fontColor=#0F0900;startArrow=none;startFill=0;endArrow=classic;endFill=1;" parent="1" source="tGK0brASN7LOrKUB66ZN-61" target="tGK0brASN7LOrKUB66ZN-96" edge="1">
          <mxGeometry relative="1" as="geometry">
            <Array as="points">
              <mxPoint x="795" y="722" />
              <mxPoint x="728" y="722" />
            </Array>
          </mxGeometry>
        </mxCell>
        <mxCell id="tGK0brASN7LOrKUB66ZN-100" style="edgeStyle=orthogonalEdgeStyle;rounded=0;orthogonalLoop=1;jettySize=auto;html=1;exitX=0.75;exitY=1;exitDx=0;exitDy=0;entryX=1;entryY=0;entryDx=0;entryDy=0;fontFamily=Work Sans;fontSource=https%3A%2F%2Ffonts.googleapis.com%2Fcss%3Ffamily%3DWork%2BSans;fontSize=18;fontColor=#0F0900;startArrow=classic;startFill=1;endArrow=none;endFill=0;" parent="1" source="tGK0brASN7LOrKUB66ZN-61" target="tGK0brASN7LOrKUB66ZN-96" edge="1">
          <mxGeometry relative="1" as="geometry">
            <Array as="points">
              <mxPoint x="843" y="792" />
              <mxPoint x="812" y="792" />
            </Array>
          </mxGeometry>
        </mxCell>
        <mxCell id="tGK0brASN7LOrKUB66ZN-104" value="Credentials" style="text;html=1;strokeColor=none;fillColor=none;align=center;verticalAlign=middle;whiteSpace=wrap;rounded=0;fontFamily=Work Sans;fontSource=https%3A%2F%2Ffonts.googleapis.com%2Fcss%3Ffamily%3DWork%2BSans;fontSize=14;fontColor=#0F0900;rotation=0;direction=west;horizontal=0;fontStyle=0;" parent="1" vertex="1">
          <mxGeometry x="843" y="692" width="30" height="100" as="geometry" />
        </mxCell>
        <mxCell id="tGK0brASN7LOrKUB66ZN-105" value="Token" style="text;html=1;strokeColor=none;fillColor=none;align=center;verticalAlign=middle;whiteSpace=wrap;rounded=0;fontFamily=Work Sans;fontSource=https%3A%2F%2Ffonts.googleapis.com%2Fcss%3Ffamily%3DWork%2BSans;fontSize=14;fontColor=#0F0900;rotation=90;direction=east;horizontal=0;fontStyle=0" parent="1" vertex="1">
          <mxGeometry x="698" y="666" width="30" height="48" as="geometry" />
        </mxCell>
        <mxCell id="tGK0brASN7LOrKUB66ZN-106" value="Data" style="text;html=1;strokeColor=none;fillColor=none;align=center;verticalAlign=middle;whiteSpace=wrap;rounded=0;fontFamily=Work Sans;fontSource=https%3A%2F%2Ffonts.googleapis.com%2Fcss%3Ffamily%3DWork%2BSans;fontSize=14;fontColor=#0F0900;rotation=0;direction=west;horizontal=0;fontStyle=0;" parent="1" vertex="1">
          <mxGeometry x="698" y="810" width="30" height="50" as="geometry" />
        </mxCell>
        <mxCell id="tGK0brASN7LOrKUB66ZN-107" value="Data" style="text;html=1;strokeColor=none;fillColor=none;align=center;verticalAlign=middle;whiteSpace=wrap;rounded=0;fontFamily=Work Sans;fontSource=https%3A%2F%2Ffonts.googleapis.com%2Fcss%3Ffamily%3DWork%2BSans;fontSize=14;fontColor=#0F0900;rotation=90;direction=west;horizontal=0;fontStyle=0;" parent="1" vertex="1">
          <mxGeometry x="636" y="559" width="30" height="50" as="geometry" />
        </mxCell>
        <mxCell id="tGK0brASN7LOrKUB66ZN-108" value="" style="group" parent="1" vertex="1" connectable="0">
          <mxGeometry x="710" y="866.5" width="120" height="120" as="geometry" />
        </mxCell>
        <mxCell id="tGK0brASN7LOrKUB66ZN-96" value="" style="ellipse;whiteSpace=wrap;html=1;aspect=fixed;fontFamily=Work Sans;fontSource=https%3A%2F%2Ffonts.googleapis.com%2Fcss%3Ffamily%3DWork%2BSans;fontSize=18;align=center;verticalAlign=middle;fillColor=#f8cecc;strokeColor=#b85450;" parent="tGK0brASN7LOrKUB66ZN-108" vertex="1">
          <mxGeometry width="120" height="120" as="geometry" />
        </mxCell>
        <mxCell id="tGK0brASN7LOrKUB66ZN-97" value="" style="sketch=0;outlineConnect=0;fontColor=#232F3E;gradientColor=none;fillColor=#232F3E;strokeColor=none;dashed=0;verticalLabelPosition=bottom;verticalAlign=top;align=center;html=1;fontSize=12;fontStyle=0;aspect=fixed;pointerEvents=1;shape=mxgraph.aws4.user;fontFamily=Work Sans;fontSource=https%3A%2F%2Ffonts.googleapis.com%2Fcss%3Ffamily%3DWork%2BSans;" parent="tGK0brASN7LOrKUB66ZN-108" vertex="1">
          <mxGeometry x="42.75" y="25.5" width="34.5" height="34.5" as="geometry" />
        </mxCell>
        <mxCell id="tGK0brASN7LOrKUB66ZN-102" value="User" style="text;html=1;strokeColor=none;fillColor=none;align=center;verticalAlign=middle;whiteSpace=wrap;rounded=0;fontFamily=Work Sans;fontSource=https%3A%2F%2Ffonts.googleapis.com%2Fcss%3Ffamily%3DWork%2BSans;fontSize=19;fontColor=#0F0900;fontStyle=1" parent="tGK0brASN7LOrKUB66ZN-108" vertex="1">
          <mxGeometry x="30" y="62.5" width="60" height="30" as="geometry" />
        </mxCell>
        <mxCell id="tGK0brASN7LOrKUB66ZN-138" value="&lt;font style=&quot;font-size: 13px;&quot;&gt;&lt;b style=&quot;font-size: 13px;&quot;&gt;4&lt;/b&gt;&lt;/font&gt;" style="ellipse;whiteSpace=wrap;html=1;aspect=fixed;fontFamily=Work Sans;fontSource=https%3A%2F%2Ffonts.googleapis.com%2Fcss%3Ffamily%3DWork%2BSans;fontSize=13;align=center;verticalAlign=middle;fillColor=#f8cecc;strokeColor=#b85450;" parent="1" vertex="1">
          <mxGeometry x="737" y="684" width="18" height="18" as="geometry" />
        </mxCell>
        <mxCell id="tGK0brASN7LOrKUB66ZN-141" value="&lt;font style=&quot;font-size: 13px;&quot;&gt;&lt;b style=&quot;font-size: 13px;&quot;&gt;1&lt;/b&gt;&lt;/font&gt;" style="ellipse;whiteSpace=wrap;html=1;aspect=fixed;fontFamily=Work Sans;fontSource=https%3A%2F%2Ffonts.googleapis.com%2Fcss%3Ffamily%3DWork%2BSans;fontSize=13;align=center;verticalAlign=middle;fillColor=#f8cecc;strokeColor=#b85450;" parent="1" vertex="1">
          <mxGeometry x="849" y="678" width="18" height="18" as="geometry" />
        </mxCell>
        <mxCell id="tGK0brASN7LOrKUB66ZN-142" value="&lt;font style=&quot;font-size: 13px;&quot;&gt;&lt;b style=&quot;font-size: 13px;&quot;&gt;2&lt;/b&gt;&lt;/font&gt;" style="ellipse;whiteSpace=wrap;html=1;aspect=fixed;fontFamily=Work Sans;fontSource=https%3A%2F%2Ffonts.googleapis.com%2Fcss%3Ffamily%3DWork%2BSans;fontSize=13;align=center;verticalAlign=middle;fillColor=#f8cecc;strokeColor=#b85450;" parent="1" vertex="1">
          <mxGeometry x="848" y="475" width="18" height="18" as="geometry" />
        </mxCell>
        <mxCell id="tGK0brASN7LOrKUB66ZN-145" value="&lt;font style=&quot;font-size: 13px;&quot;&gt;&lt;b style=&quot;font-size: 13px;&quot;&gt;3&lt;/b&gt;&lt;/font&gt;" style="ellipse;whiteSpace=wrap;html=1;aspect=fixed;fontFamily=Work Sans;fontSource=https%3A%2F%2Ffonts.googleapis.com%2Fcss%3Ffamily%3DWork%2BSans;fontSize=13;align=center;verticalAlign=middle;fillColor=#f8cecc;strokeColor=#b85450;" parent="1" vertex="1">
          <mxGeometry x="680" y="472" width="18" height="18" as="geometry" />
        </mxCell>
        <mxCell id="tGK0brASN7LOrKUB66ZN-146" value="&lt;font style=&quot;font-size: 13px&quot;&gt;&lt;b style=&quot;font-size: 13px&quot;&gt;5&lt;/b&gt;&lt;/font&gt;" style="ellipse;whiteSpace=wrap;html=1;aspect=fixed;fontFamily=Work Sans;fontSource=https%3A%2F%2Ffonts.googleapis.com%2Fcss%3Ffamily%3DWork%2BSans;fontSize=13;align=center;verticalAlign=middle;fillColor=#f8cecc;strokeColor=#b85450;" parent="1" vertex="1">
          <mxGeometry x="618" y="559" width="18" height="18" as="geometry" />
        </mxCell>
        <mxCell id="tGK0brASN7LOrKUB66ZN-147" value="&lt;font style=&quot;font-size: 13px&quot;&gt;&lt;b style=&quot;font-size: 13px&quot;&gt;6&lt;/b&gt;&lt;/font&gt;" style="ellipse;whiteSpace=wrap;html=1;aspect=fixed;fontFamily=Work Sans;fontSource=https%3A%2F%2Ffonts.googleapis.com%2Fcss%3Ffamily%3DWork%2BSans;fontSize=13;align=center;verticalAlign=middle;fillColor=#f8cecc;strokeColor=#b85450;" parent="1" vertex="1">
          <mxGeometry x="702" y="795" width="18" height="18" as="geometry" />
        </mxCell>
        <mxCell id="vQHYAsxkU6DZZQ9oV_Qt-4" style="edgeStyle=orthogonalEdgeStyle;rounded=0;orthogonalLoop=1;jettySize=auto;html=1;exitX=0.75;exitY=0;exitDx=0;exitDy=0;entryX=0.75;entryY=1;entryDx=0;entryDy=0;" edge="1" parent="1" source="tGK0brASN7LOrKUB66ZN-61" target="tGK0brASN7LOrKUB66ZN-31">
          <mxGeometry relative="1" as="geometry" />
        </mxCell>
        <mxCell id="vQHYAsxkU6DZZQ9oV_Qt-6" style="edgeStyle=orthogonalEdgeStyle;rounded=0;orthogonalLoop=1;jettySize=auto;html=1;exitX=0.25;exitY=1;exitDx=0;exitDy=0;entryX=0.25;entryY=0;entryDx=0;entryDy=0;" edge="1" parent="1" source="tGK0brASN7LOrKUB66ZN-31" target="tGK0brASN7LOrKUB66ZN-61">
          <mxGeometry relative="1" as="geometry" />
        </mxCell>
      </root>
    </mxGraphModel>
  </diagram>
</mxfile>
